<svg width="48" height="48" viewBox="0 0 48 48" fill="none" xmlns="http://www.w3.org/2000/svg">
  <path d="M24 12C18.5 12 14 16.5 14 22" fill="none" stroke="#0275D8" stroke-width="3" stroke-linecap="round"/>
  <path d="M24 16C20.7 16 18 18.7 18 22" fill="none" stroke="#0275D8" stroke-width="3" stroke-linecap="round"/>
  <path d="M24 20C22.9 20 22 20.9 22 22" fill="none" stroke="#0275D8" stroke-width="3" stroke-linecap="round"/>
  <circle cx="24" cy="26" r="2" fill="#0275D8"/>
  <path d="M34 12C39.5 12 44 16.5 44 22" fill="none" stroke="#0275D8" stroke-width="3" stroke-linecap="round"/>
  <path d="M34 16C37.3 16 40 18.7 40 22" fill="none" stroke="#0275D8" stroke-width="3" stroke-linecap="round"/>
  <path d="M34 20C35.1 20 36 20.9 36 22" fill="none" stroke="#0275D8" stroke-width="3" stroke-linecap="round"/>
  <rect x="4" y="30" width="40" height="8" rx="4" fill="#0275D8" opacity="0.3"/>
  <circle cx="12" cy="34" r="2" fill="#0275D8"/>
  <circle cx="24" cy="34" r="2" fill="#0275D8"/>
  <circle cx="36" cy="34" r="2" fill="#0275D8"/>
</svg>